<svg xmlns="http://www.w3.org/2000/svg" width="127" height="19" viewBox="0 0 127 19" fill="none">
<g clip-path="url(#clip0_508_239)">
<path fill-rule="evenodd" clip-rule="evenodd" d="M121.855 9.24815C121.855 8.76327 122.373 8.50475 122.939 8.50475C123.893 8.50475 124.605 9.05426 124.734 9.89446H126.61C126.433 8.16544 124.96 6.95362 122.971 6.95362C121.208 6.95362 119.849 7.8746 119.849 9.42573C119.849 11.1547 121.499 11.6072 122.874 11.9628C123.86 12.2211 124.702 12.4314 124.702 13.013C124.702 13.4816 124.168 13.8047 123.424 13.8047C122.421 13.8047 121.661 13.2392 121.548 12.399H119.671C119.849 14.1279 121.37 15.356 123.424 15.356C125.284 15.356 126.74 14.3703 126.74 12.819C126.74 11.1386 125.09 10.6862 123.715 10.3307C122.712 10.072 121.855 9.84598 121.855 9.24815ZM111.635 7.13119H109.581V15.1945H111.635V10.9285C111.635 9.82966 112.606 8.68248 114.256 8.941V6.98594C113.01 6.84036 112.12 7.53513 111.635 8.58553V7.13119ZM104.756 11.0578L103.186 7.7615L101.666 11.0578H104.756ZM103.267 3.39864L109.09 15.1945H106.729L105.58 12.7867H100.857L99.7413 15.1945H97.4446L103.267 3.39864ZM92.0268 10.2984H94.1134C93.7254 8.34317 92.043 6.96962 90.0373 6.96962C87.7082 6.96962 85.8157 8.73095 85.8157 11.1709C85.8157 13.5947 87.7082 15.356 90.0373 15.356C92.043 15.356 93.7254 14.0471 94.1134 12.0919H92.0268C91.7033 12.9646 90.9433 13.5139 90.0373 13.5139C88.8242 13.5139 87.8538 12.5606 87.8538 11.2032C87.8538 9.81367 88.8242 8.87637 90.0373 8.87637C90.9433 8.87637 91.7033 9.42573 92.0268 10.2984ZM82.8515 15.1945H84.9054V7.13135H82.8515V15.1945ZM82.5602 4.8045C82.5602 5.53159 83.1588 6.12942 83.8705 6.12942C84.5983 6.12942 85.1967 5.53159 85.1967 4.8045C85.1967 4.07741 84.5983 3.47942 83.8705 3.47942C83.1588 3.47942 82.5602 4.07741 82.5602 4.8045ZM76.2896 8.13296V7.13119H74.2354V15.1945H76.2896V10.3144C76.2896 9.37741 77.0174 8.63401 77.9718 8.63401C78.9583 8.63401 79.6539 9.34494 79.6539 10.3952V15.1945H81.7082V10.2336C81.7082 8.34317 80.6244 6.95362 78.6997 6.95362C77.6644 6.95362 76.7748 7.40587 76.2896 8.13296ZM69.0464 8.86021C67.8011 8.86021 66.8143 9.79735 66.8143 11.1871C66.8143 12.5443 67.8011 13.4978 69.0464 13.4978C70.292 13.4978 71.2784 12.5443 71.2784 11.1871C71.2784 9.79735 70.292 8.86021 69.0464 8.86021ZM69.0464 15.356C66.6847 15.356 64.7764 13.5947 64.7764 11.1709C64.7764 8.73095 66.6847 6.96962 69.0464 6.96962C71.408 6.96962 73.3167 8.73095 73.3167 11.1709C73.3167 13.5947 71.408 15.356 69.0464 15.356ZM62.0852 7.13119H60.0308V15.1945H62.0852V10.9285C62.0852 9.82966 63.0556 8.68248 64.7055 8.941V6.98594C63.46 6.84036 62.5704 7.53513 62.0852 8.58553V7.13119ZM116.98 4.77219L114.958 5.41849V13.11C114.958 14.3541 115.832 15.1945 117.32 15.1945H119.325V13.3685H117.902C117.271 13.3685 116.98 13.0777 116.98 12.5443V8.87637H119.325V7.13119H116.98V4.77219ZM56.9019 4.77219L54.8802 5.41849V13.11C54.8802 14.3541 55.7536 15.1945 57.2414 15.1945H59.2475V13.3685H57.824C57.1932 13.3685 56.9019 13.0777 56.9019 12.5443V8.87637H59.2475V7.13119H56.9019V4.77219ZM52.1348 10.2984H54.2213C53.8331 8.34317 52.151 6.96962 50.1453 6.96962C47.8162 6.96962 45.9237 8.73095 45.9237 11.1709C45.9237 13.5947 47.8162 15.356 50.1453 15.356C52.151 15.356 53.8331 14.0471 54.2213 12.0919H52.1348C51.8114 12.9646 51.051 13.5139 50.1453 13.5139C48.9322 13.5139 47.9618 12.5606 47.9618 11.2032C47.9618 9.81367 48.9322 8.87637 50.1453 8.87637C51.051 8.87637 51.8114 9.42573 52.1348 10.2984ZM43.0001 10.363C42.8222 9.40973 41.981 8.74711 41.0266 8.74711C40.0723 8.74711 39.2798 9.37741 39.0049 10.363H43.0001ZM45.2161 11.8334H38.9888C39.2636 12.8514 40.1694 13.5301 41.2692 13.5301C41.9002 13.5301 42.4823 13.2877 42.8222 12.7867H45.1028C44.4883 14.3379 43.0323 15.356 41.237 15.356C38.8106 15.356 36.8376 13.5785 36.8376 11.1547C36.8376 8.71479 38.7137 6.95362 41.0266 6.95362C43.0323 6.95362 45.2321 8.42396 45.2321 11.5264C45.2321 11.6233 45.2161 11.7204 45.2161 11.8334ZM33.8737 15.1945H35.9279V3.23706L33.8737 3.88352V15.1945ZM24.7227 3.88352H32.9398V5.8709H26.9873V8.5209H31.8073V10.476H26.9873V13.2392H32.9398V15.1945H24.7227V3.88352Z" fill="#FF4747"/>
<path fill-rule="evenodd" clip-rule="evenodd" d="M9.30865 18.6173C4.17581 18.6173 0 14.4415 0 9.30869C0 4.17583 4.17581 0 9.30865 0C14.4414 0 18.6173 4.17585 18.6173 9.30869C18.6173 14.4415 14.4414 18.6173 9.30865 18.6173ZM10.8842 5.70816H5.62343L4.82523 6.99091H10.08L10.8842 5.70816ZM11.9593 5.7204L8.74328 10.8413H5.17595L5.99897 9.55749H8.13706L8.95381 8.27427H4.01089L3.19432 9.55749H4.36527L2.74062 12.1207H9.52084L12.0252 8.17132L12.9383 9.55749H12.1149L11.3352 10.8413H13.7734L14.62 12.1207H16.1753L11.9593 5.7204Z" fill="#FF4747"/>
</g>
<defs>
<clipPath id="clip0_508_239">
<rect width="126.74" height="18.6173" fill="white"/>
</clipPath>
</defs>
</svg>
