<svg xmlns="http://www.w3.org/2000/svg" width="72" height="72" viewBox="0 0 72 72" fill="none">
<g clip-path="url(#clip0_508_201)">
<path d="M0.16748 0.262207H71.9508V71.7307H0.16748V0.262207Z" fill="white"/>
<path d="M0.168789 0.263372H45.2078C48.8335 0.263372 52.4595 0.255793 56.0776 0.270635C55.075 1.28369 54.0495 2.28948 53.04 3.30285C53.439 3.72285 53.8611 4.11316 54.2608 4.5259C55.1806 3.89558 56.2206 3.39285 57.3514 3.31011C58.3689 3.20495 59.3944 3.46769 60.3288 3.87316C60.6831 4.02316 61.0148 4.26316 61.4142 4.30074C61.8062 4.27832 62.1002 3.93316 62.236 3.58769C62.3489 3.348 62.2433 3.06253 62.0552 2.88979C61.1807 2.0119 60.2986 1.14885 59.4318 0.270635C63.6078 0.248214 67.7838 0.270635 71.9525 0.263372C71.9525 4.3159 71.9598 8.37601 71.9525 12.4361C71.0933 11.5958 70.2562 10.74 69.4043 9.89969C69.1781 9.66664 68.8092 9.54664 68.5 9.68937C68.2964 9.78695 68.1003 9.94453 68.0099 10.1621C67.8967 10.5976 68.093 11.0252 68.2662 11.4152C68.794 12.5261 69.0278 13.7795 68.8695 15.0028C68.7639 15.8359 68.4622 16.6538 68.0099 17.3668C67.8894 17.5393 67.7765 17.7193 67.6709 17.8999C68.1079 18.2747 68.4775 18.7251 68.9221 19.093C69.9172 18.0723 70.9423 17.0741 71.9525 16.0607C71.9525 22.8376 71.9598 29.6147 71.9525 36.3916C71.7562 36.4592 71.5376 36.5943 71.334 36.4964C71.0628 36.324 70.8592 36.0689 70.633 35.8513C68.1907 33.4345 65.771 30.9954 63.3214 28.5865C62.3489 29.5547 61.392 30.5302 60.4039 31.476C60.9244 32.0612 61.5049 32.5791 62.0476 33.1418C64.0074 35.0934 65.967 37.0446 67.9348 38.9956C68.1003 39.1683 68.2964 39.3186 68.3867 39.5438C68.4169 39.7914 68.2437 40.0014 68.1758 40.2265C68.0778 40.4893 68.2891 40.8044 68.5679 40.8117C68.8165 40.8572 69.0278 40.6917 69.1861 40.5269C70.1056 39.6035 71.0327 38.688 71.9525 37.7722V71.7319H37.8356C38.7101 70.8616 39.5845 69.9982 40.459 69.1276C37.4816 66.1709 34.5115 63.2138 31.5415 60.2495C30.5693 61.1801 29.6346 62.1483 28.6697 63.0862C28.4661 63.2965 28.2399 63.499 28.1422 63.7841C28.0969 64.0617 28.3532 64.3244 28.6243 64.3396C28.8657 64.3096 29.069 64.1517 29.3104 64.0993C29.5213 64.0848 29.6875 64.2496 29.8379 64.3848C31.602 66.1557 33.3735 67.9121 35.1449 69.6758C35.5893 70.1406 36.0721 70.561 36.4863 71.0416C36.675 71.2516 36.5469 71.5216 36.4413 71.7319H16.0364C17.6416 70.1334 19.2475 68.5349 20.8528 66.9363C21.1541 66.6512 21.4634 66.3212 21.5084 65.8857C21.5763 65.383 21.064 64.8799 20.5588 64.9851C20.1366 65.0675 19.7902 65.3978 19.3528 65.3978C19.074 65.3754 18.8628 65.1726 18.6744 64.9926C14.8374 61.1801 11.0084 57.3603 7.17912 53.5475C6.92283 53.2926 6.6139 53.0451 6.52319 52.6769C6.50828 52.242 6.81721 51.889 6.93045 51.4914C7.0735 50.9886 6.59868 50.4404 6.08579 50.4783C5.73182 50.5008 5.41527 50.7032 5.17422 50.9511C3.51568 52.6247 1.82733 54.2757 0.168789 55.9494C0.161176 37.3895 0.168789 18.823 0.168789 0.263372Z" fill="#F96302"/>
<path d="M51.9466 4.3835C52.0145 4.30866 52.135 4.24077 52.2029 4.3535C57.4567 9.57666 62.7108 14.8077 67.9573 20.0385C66.1179 21.8697 64.2713 23.7082 62.432 25.5471C62.1906 25.7722 61.8966 25.9598 61.5651 25.9822C61.1052 26.0201 60.6453 25.6071 60.6831 25.1416C60.6983 24.684 61.09 24.3313 61.0976 23.8658C61.1128 23.5731 60.8867 23.3558 60.6983 23.1528C56.8011 19.2806 52.9115 15.4008 49.0143 11.5203C48.7958 11.3103 48.5547 11.0476 48.2229 11.0703C47.7329 11.0776 47.3637 11.5279 46.8664 11.4755C46.5796 11.4828 46.3459 11.2576 46.2028 11.0252C46.0068 10.62 46.1876 10.1321 46.4819 9.83214C48.306 8.01572 50.1302 6.19961 51.9466 4.3835ZM59.5149 5.90687C59.6655 5.62929 59.952 5.37414 60.291 5.41898C60.6678 5.44929 60.9393 5.75656 61.188 6.00445C62.6959 7.51298 64.2034 9.01393 65.711 10.5149C65.9974 10.7928 66.3365 11.0628 66.4044 11.4755C66.4421 11.9031 66.0501 12.2858 65.6355 12.331C65.2888 12.3386 64.9723 12.151 64.671 11.9858C64.0299 11.6107 63.3065 11.3103 62.5449 11.3479C62.1529 11.3403 61.7764 11.4979 61.4218 11.6555C61.0072 11.2128 60.5324 10.8152 60.1404 10.3573C60.2609 10.0197 60.4192 9.69698 60.442 9.33635C60.495 8.51877 60.1632 7.73814 59.7483 7.05508C59.5374 6.7175 59.3715 6.29687 59.5149 5.90687ZM26.295 9.88456C27.1095 9.02908 27.9688 8.22603 28.7826 7.37782C29.5591 8.12814 30.3127 8.88635 31.0743 9.64424C31.3229 9.88456 31.0968 10.2897 30.818 10.3873C30.5842 10.4173 30.3806 10.2597 30.1697 10.1846C29.3558 9.78698 28.3456 9.74214 27.5317 10.1773C27.3204 10.2673 27.1469 10.4473 26.9208 10.4849C26.6946 10.3049 26.5062 10.0797 26.295 9.88456ZM25.7827 10.3646C26.8907 11.4303 27.9611 12.5337 29.0541 13.6068C30.7653 15.3029 32.4686 17.0141 34.1874 18.7102C33.2073 19.7009 32.2199 20.6767 31.2325 21.6521C31.0289 21.877 30.622 21.9749 30.426 21.697C30.1849 21.4418 30.4485 21.1267 30.524 20.8639C30.6144 20.6688 30.4564 20.4963 30.3279 20.3615C28.3532 18.4023 26.3854 16.4435 24.4182 14.4774C24.2374 14.3122 24.0865 14.1098 23.8679 13.9971C23.5666 13.9295 23.3328 14.1998 23.0388 14.215C22.8127 14.1922 22.6017 13.9674 22.6319 13.7343C22.6468 13.5543 22.7524 13.3968 22.8805 13.2692C23.8454 12.301 24.8255 11.3479 25.7827 10.3646ZM29.7174 11.5655C29.6197 11.3179 29.7929 11.0179 30.0568 10.9803C30.2528 10.9503 30.411 11.1 30.5468 11.2279C31.3607 12.0382 32.1746 12.8565 32.9964 13.6595C33.1394 13.8171 33.3431 13.9595 33.3583 14.1922C33.3884 14.425 33.1623 14.6501 32.9212 14.6274C32.6043 14.6274 32.3633 14.3798 32.0769 14.2747C31.6547 14.0798 31.1421 14.0647 30.7276 14.2898C30.5091 14.0722 30.2902 13.8471 30.064 13.6443C30.1624 13.314 30.2528 12.9616 30.1697 12.6161C30.1094 12.2261 29.8379 11.9258 29.7174 11.5655ZM44.1526 12.151C44.3562 11.9482 44.6122 11.7982 44.8989 11.7607C45.4035 11.6858 45.9313 12.1734 45.8336 12.6837C45.7658 13.134 45.3889 13.494 45.4188 13.9674C45.4942 14.2971 45.7658 14.5222 45.984 14.7553C49.8361 18.5827 53.688 22.4025 57.5246 26.2374C57.7358 26.4253 57.9467 26.6729 58.2484 26.6729C58.7007 26.6729 59.0474 26.3353 59.4771 26.2598C59.9745 26.1777 60.4645 26.6653 60.4039 27.1608C60.3741 27.4984 60.1705 27.7911 59.9371 28.0235C57.9994 29.9448 56.0697 31.8812 54.1327 33.8025C53.884 34.05 53.5674 34.2752 53.1982 34.2752C52.7907 34.2976 52.3989 33.9528 52.3463 33.5549C52.2933 33.0294 52.7834 32.6391 52.7681 32.1136C52.7456 31.866 52.5724 31.6636 52.4066 31.4833C49.0219 28.1214 45.6449 24.7516 42.2606 21.3894C45.0572 26.5601 47.8763 31.7164 50.6728 36.8871C50.7179 36.9619 50.7556 37.0447 50.7934 37.1347C50.5901 37.3219 50.394 37.5247 50.198 37.7274C44.5973 34.981 39.0041 32.2036 33.4109 29.4496C32.5292 29.0145 31.6547 28.5041 30.6597 28.3841C30.3279 28.3387 30.1018 28.6093 29.8607 28.7817C29.6117 28.9769 29.28 29.0969 28.9714 28.9993C28.6018 28.8345 28.3456 28.399 28.4588 28.0011C28.534 27.7311 28.7224 27.5059 28.9184 27.3105C30.7276 25.5171 32.5292 23.7161 34.3384 21.9297C37.1572 23.3031 39.9839 24.6465 42.8109 26.0201C42.9013 26.0874 42.999 26.155 43.0821 26.245C43.1274 26.1922 43.1652 26.1398 43.2102 26.0874L43.1046 26.1022C41.6199 23.2879 40.0597 20.5112 38.5743 17.6969C40.4438 15.8508 42.2907 13.9971 44.1526 12.151ZM34.2553 13.4192C34.391 13.1716 34.7754 13.1416 34.9562 13.3516C35.7175 14.1171 36.4942 14.8826 37.2628 15.6483C36.4035 16.5111 35.544 17.3669 34.6701 18.2224C34.4741 17.9972 34.2099 17.8172 34.0593 17.5545C34.3079 17.1341 34.5718 16.7062 34.6397 16.2111C34.7678 15.528 34.6549 14.8077 34.3609 14.1774C34.2778 13.9371 34.097 13.6595 34.2553 13.4192ZM21.5991 14.545C21.7498 14.3874 21.9157 14.2222 22.1342 14.1698C22.3531 14.125 22.6243 14.2598 22.6544 14.4998C22.7074 14.7626 22.5113 14.9805 22.4587 15.2353C22.4282 15.438 22.5941 15.5808 22.7147 15.7159C24.7275 17.7193 26.7324 19.7233 28.7452 21.7194C28.881 21.8473 29.024 22.0049 29.22 22.0497C29.4611 22.0273 29.6644 21.8697 29.8985 21.8173C30.1849 21.787 30.4485 22.0949 30.3581 22.3649C30.3206 22.5676 30.1624 22.7179 30.0266 22.8604C29.0465 23.8361 28.0664 24.8116 27.0867 25.7798C26.9135 25.9526 26.6873 26.1326 26.4307 26.0726C26.2877 26.0122 26.1672 25.8998 26.1142 25.7574C26.039 25.4271 26.3933 25.1568 26.3102 24.8265C26.235 24.6992 26.1294 24.6013 26.0314 24.4965C25.1119 23.5882 24.1997 22.6652 23.2726 21.7573C22.9484 22.0873 22.6243 22.41 22.2925 22.7328C22.0663 22.5152 21.8402 22.2973 21.6293 22.0649C21.9607 21.7421 22.2852 21.4121 22.617 21.0891C21.8024 20.2939 20.9959 19.483 20.1896 18.6799C20.0161 18.5151 19.8654 18.3351 19.6618 18.2151C19.2926 18.0948 18.9383 18.6127 18.584 18.3275C18.2973 18.1251 18.388 17.7193 18.6218 17.5093C19.6091 16.5111 20.6114 15.5356 21.5991 14.545Z" fill="white"/>
<path d="M17.7397 18.4402C17.9662 18.2971 18.3052 18.3875 18.4105 18.6426C18.5161 18.9502 18.2373 19.2129 18.2297 19.5133C18.2221 19.6708 18.3503 19.7833 18.4483 19.8884C20.5363 21.9676 22.617 24.0461 24.705 26.1174C25.0815 26.5225 25.5642 25.8246 25.9712 26.1249C26.2351 26.3353 26.1447 26.7477 25.9185 26.9428C24.9384 27.9262 23.951 28.8941 22.9786 29.8771C22.8203 30.0275 22.662 30.2075 22.4435 30.275C22.2021 30.3426 21.9081 30.1923 21.8783 29.9375C21.8329 29.6375 22.1044 29.4044 22.0892 29.1117C22.0511 28.9841 21.9687 28.8793 21.8783 28.7817C19.9032 26.8231 17.9281 24.8567 15.9606 22.8903C15.7725 22.7179 15.6143 22.5 15.3653 22.41C15.0941 22.3951 14.8679 22.5979 14.604 22.6276C14.3779 22.6351 14.1819 22.4324 14.1743 22.2151C14.1517 21.9821 14.3176 21.7948 14.4759 21.6373C15.4557 20.6615 16.4354 19.6857 17.4082 18.7102C17.5135 18.6126 17.6116 18.515 17.7397 18.4402ZM12.2899 23.8061C12.7422 23.3706 13.1793 22.9203 13.6316 22.4776C14.4233 23.2434 15.1994 24.0385 15.9911 24.8116C16.1268 24.9616 16.2924 25.0967 16.3676 25.2919C16.4583 25.6598 16.0364 26.0649 15.6669 25.8998C15.2974 25.7346 15.0037 25.4419 14.6491 25.2467C14.0537 24.8791 13.3601 24.6464 12.6518 24.7291C12.4482 24.5191 12.222 24.3237 12.0412 24.0988C12.1012 23.9785 12.1995 23.8961 12.2899 23.8061ZM9.00327 27.078C9.84761 26.2525 10.6767 25.4195 11.5134 24.5864C13.0965 26.1701 14.6868 27.7535 16.2772 29.3296C17.1516 30.1923 18.0036 31.0708 18.8853 31.9187C19.1343 32.1963 19.4658 31.9639 19.7373 31.866C20.0085 31.746 20.3253 31.9863 20.3177 32.2711C20.3177 32.4663 20.2045 32.6315 20.0767 32.7669C19.0516 33.78 18.0413 34.793 17.0238 35.8064C16.8805 35.9488 16.6993 36.0913 16.4884 36.0764C16.2547 36.0991 16.0285 35.874 16.051 35.6485C16.0662 35.4085 16.2547 35.2134 16.2547 34.973C16.2699 34.7703 16.0964 34.6427 15.9759 34.5076C13.5713 32.1287 11.1893 29.7275 8.77713 27.3556C8.85261 27.258 8.92049 27.168 9.00327 27.078ZM65.5753 26.3425C66.5097 27.258 67.4371 28.181 68.3569 29.1117C68.6506 29.3896 68.4397 29.9447 68.0477 30.005C67.6858 30.0575 67.407 29.7723 67.1282 29.5847C66.3818 29.0741 65.4998 28.5941 64.5654 28.7517C64.3164 28.5265 64.0753 28.2938 63.8717 28.0314C64.4521 27.4759 65.01 26.9053 65.5753 26.3425ZM8.23443 27.8659C8.51355 27.971 8.68673 28.2862 8.91288 28.4814C8.79235 29.352 9.20659 30.1699 9.69663 30.8529C9.84 31.0708 10.0132 31.2733 10.1036 31.5208C10.2019 31.8511 9.87774 32.1963 9.54597 32.1587C9.35757 32.1587 9.22942 32.0011 9.1089 31.8887C8.28708 31.0629 7.45829 30.2526 6.63647 29.4271C7.17917 28.9165 7.68444 28.3689 8.23443 27.8659ZM25.0063 32.099C26.5062 31.6184 28.1343 31.566 29.6796 31.8811C32.303 32.4366 34.6245 33.9676 36.479 35.8661C38.2955 37.6974 39.7428 39.9941 40.2329 42.5529C40.504 43.9563 40.4438 45.4272 40.0372 46.8006C39.6375 48.1591 38.9134 49.4125 38.0015 50.4931C37.6095 50.0804 37.18 49.6977 36.8029 49.2774C36.8029 49.0746 36.931 48.9019 36.9691 48.707C37.1724 48.0467 36.9691 47.3037 36.4638 46.823C32.7404 43.1084 29.0015 39.3935 25.2775 35.6785C24.9384 35.3334 24.509 35.0558 24.0189 35.0182C23.6193 34.9658 23.2272 35.1082 22.8504 35.243C22.6994 35.3258 22.6018 35.1385 22.5037 35.063C22.2021 34.7406 21.8703 34.4479 21.569 34.1176C21.569 34.0951 21.5614 34.05 21.5614 34.0276C22.564 33.1721 23.7401 32.5042 25.0063 32.099ZM35.1675 31.686C35.5142 31.7984 35.8307 31.9711 36.1549 32.1363C37.3687 32.7218 38.5743 33.3297 39.7958 33.9224C39.9011 33.9751 39.9991 34.0576 40.0898 34.14C41.1146 35.1758 42.1477 36.1964 43.1801 37.2246C43.738 37.8177 44.4387 38.2753 45.2002 38.5604C45.7353 38.7631 46.3386 38.7631 46.8737 38.5753C47.1452 38.4853 47.4392 38.3804 47.7256 38.4704C48.012 38.5831 48.2229 38.8683 48.2455 39.1759C48.2229 39.5886 47.9591 39.9338 47.6803 40.2189C46.7607 41.1496 45.8257 42.0729 44.8913 42.9884C44.6426 43.2136 44.3562 43.446 44.0092 43.4836C43.5119 43.5584 43.0218 43.0336 43.1725 42.5529C43.3159 42.065 43.5119 41.5699 43.4291 41.0596C43.3082 40.2038 42.8182 39.4459 42.2755 38.7931C40.2329 36.7519 38.1826 34.7179 36.1324 32.669C35.8155 32.3387 35.4688 32.0387 35.1675 31.686ZM58.1577 33.7273C58.7235 33.1645 59.296 32.6015 59.8616 32.0315C60.1102 32.2339 60.3288 32.4742 60.5625 32.6994C60.4645 33.4497 60.7211 34.1924 61.1128 34.823C61.3162 35.1834 61.6102 35.4909 61.7913 35.8661C61.8893 36.0464 61.8214 36.2488 61.7536 36.4288C62.7035 37.067 63.5399 37.8774 64.2035 38.8004C64.9647 39.8738 65.4998 41.1496 65.4696 42.4854C65.4772 43.7539 64.9269 44.9694 64.1203 45.93C63.9018 45.7048 63.6455 45.5024 63.4568 45.2473C63.4949 44.9694 63.6303 44.6994 63.5624 44.4218C63.4873 44.0615 63.2081 43.8063 62.9595 43.5584C60.9698 41.5847 58.9871 39.6114 57.0047 37.6374C56.8087 37.4422 56.5749 37.2622 56.2958 37.2398C56.0323 37.2095 55.7684 37.2846 55.5273 37.367C55.2935 37.1498 55.0601 36.9167 54.8339 36.6916C55.8362 35.8361 57.1402 35.2882 58.4745 35.3558C58.9871 35.3409 59.4848 35.4609 59.9821 35.5734C59.3791 34.9506 58.7381 34.3651 58.1577 33.7273ZM18.7122 38.1325C19.1267 36.9843 19.7823 35.9337 20.5588 34.9955C20.9432 35.3861 21.3505 35.7609 21.7273 36.1588C21.8025 36.3991 21.6068 36.6243 21.569 36.8643C21.373 37.5098 21.6293 38.2153 22.1044 38.6804C25.7675 42.3354 29.4386 45.9827 33.1096 49.6374C33.4639 50.0204 33.8934 50.3804 34.4361 50.4631C34.9185 50.5383 35.3936 50.3731 35.8383 50.208C36.2453 50.6131 36.6525 51.011 37.0595 51.4162C36.1698 52.1892 35.137 52.7971 34.0367 53.225C32.3782 53.8626 30.524 53.9678 28.7826 53.5854C26.1367 53.0071 23.8077 51.4238 21.9458 49.4949C20.2273 47.7016 18.84 45.5024 18.3503 43.0481C18.0188 41.4199 18.1244 39.6938 18.7122 38.1325ZM52.9718 40.3017C53.0625 39.161 53.5674 38.0728 54.3214 37.217C54.5396 37.4422 54.7737 37.6674 54.9995 37.8925C54.9167 38.1628 54.7883 38.448 54.8641 38.7328C54.9091 38.9883 55.0823 39.191 55.2634 39.371C57.2534 41.3447 59.2282 43.326 61.2185 45.2997C61.4519 45.5248 61.6781 45.7951 62.0098 45.8851C62.3115 45.9679 62.6204 45.8624 62.9141 45.7724C63.1406 45.9979 63.3743 46.223 63.5929 46.463C62.6429 47.2434 61.4595 47.7916 60.2082 47.7916C58.9947 47.844 57.8037 47.4161 56.7938 46.7858C56.0624 46.3206 55.3915 45.7576 54.8339 45.1045C55.0975 45.9827 55.0376 46.9661 54.6227 47.7916C54.2158 48.6019 53.5827 49.2625 52.9569 49.9004C52.7307 49.6753 52.497 49.4422 52.2632 49.2174C52.4595 48.9019 52.5877 48.5267 52.4668 48.1591C52.3238 47.7837 52.0145 47.5137 51.7433 47.2285C51.1854 46.6655 50.6202 46.1027 50.0547 45.54C49.7232 45.2321 49.3686 44.8794 48.8938 44.8494C48.615 44.8197 48.3663 44.9621 48.1326 45.0972C47.8991 44.8721 47.673 44.6394 47.4392 44.4145C48.3435 43.5063 49.3762 42.5681 50.703 42.4029C51.7884 42.2226 52.8814 42.6881 53.6502 43.4311C53.1678 42.4705 52.8665 41.3896 52.9718 40.3017ZM13.2395 42.9208C13.4657 42.7033 13.7597 42.5381 14.0763 42.5157C14.5964 42.4854 15.0716 43.0257 14.9279 43.5287C14.815 43.9115 14.5362 44.249 14.5209 44.6621C14.5511 45.0221 14.8527 45.2773 15.0941 45.5176C18.9608 49.3674 22.8352 53.225 26.7023 57.0748C26.8834 57.2476 27.0867 57.42 27.343 57.4424C27.78 57.4424 28.1194 57.12 28.534 57.0224C29.0313 56.9248 29.529 57.3751 29.5065 57.8703C29.4912 58.2082 29.3028 58.5158 29.0691 58.7558C27.1244 60.6922 25.1719 62.6362 23.2272 64.5723C22.971 64.8199 22.6544 65.0375 22.2852 65.0375C21.8329 65.0526 21.4107 64.625 21.4482 64.1668C21.4938 63.7168 21.8703 63.3565 21.8783 62.891C21.863 62.6135 21.6442 62.4031 21.471 62.2083C19.7373 60.4746 17.996 58.7558 16.2699 57.03C16.202 56.9776 16.1116 56.8273 16.0136 56.9321C15.4106 57.51 14.8302 58.1182 14.2269 58.6958C13.82 58.2906 13.413 57.8855 13.0058 57.4727C13.5862 56.8648 14.1892 56.2718 14.7997 55.6866C14.7997 55.6563 14.8077 55.589 14.8077 55.5587C13.1717 53.9605 11.5661 52.3393 9.93801 50.7259C9.68934 50.4931 9.45526 50.2007 9.1089 50.118C8.63408 50.0877 8.26456 50.4556 7.81987 50.5383C7.24705 50.6359 6.72687 49.9904 6.92289 49.4574C7.0209 49.0822 7.32222 48.8119 7.58611 48.557C9.47048 46.6734 11.3625 44.8045 13.2395 42.9208ZM46.8962 44.9472C47.8008 45.7876 48.6527 46.6882 49.5421 47.5512C51.2308 49.2398 52.9267 50.9283 54.6227 52.6168C54.7432 52.7147 54.8561 52.8496 55.0144 52.8796C55.3389 52.9099 55.5949 52.5944 55.9193 52.6544C56.1153 52.722 56.2958 52.9099 56.2736 53.1271C56.2736 53.4199 56.0246 53.6226 55.8435 53.8178C54.781 54.8611 53.733 55.919 52.6705 56.9624C52.4367 57.2176 51.9993 57.09 51.8563 56.8048C51.6453 56.4521 52.2182 56.0766 51.9168 55.7542C49.7305 53.5854 47.5445 51.4086 45.3661 49.2322C45.2078 49.0898 45.0724 48.9098 44.8837 48.8119C44.5595 48.7219 44.3032 48.9922 44.0019 49.0298C43.7682 49.0074 43.542 48.8046 43.5569 48.5643C43.5344 48.3016 43.7304 48.0995 43.896 47.9267C44.8989 46.9358 45.9015 45.9379 46.8962 44.9472ZM40.1726 51.6341C41.0693 50.7559 41.9437 49.848 42.8559 48.9846C43.6625 49.7952 44.4767 50.5983 45.2833 51.4086C45.5545 51.6714 45.2681 52.0693 44.9893 52.1893C44.7933 52.2117 44.6122 52.0917 44.4387 52.0168C43.7456 51.6786 42.9463 51.5138 42.1851 51.7089C41.7027 51.8065 41.2805 52.0765 40.8583 52.3241C40.6322 52.0917 40.4064 51.8592 40.1726 51.6341ZM36.5088 55.2887C37.5495 54.2381 38.6048 53.2099 39.6448 52.1665C41.3332 53.8254 42.999 55.5139 44.6953 57.1724C45.9919 58.4558 47.2733 59.7543 48.5772 61.0301C47.5673 62.0656 46.5273 63.0714 45.5168 64.0992C45.3737 64.2571 45.1701 64.3471 44.9817 64.4296C44.7933 64.3623 44.5595 64.2947 44.4993 64.0847C44.3863 63.7317 44.7555 63.4541 44.7105 63.1089C44.5595 62.8162 44.2956 62.6059 44.0695 62.3735C42.2378 60.5495 40.4064 58.7261 38.5743 56.9021C38.2505 56.6021 37.979 56.2421 37.5946 56.0169C37.2101 55.9415 36.8635 56.4294 36.4943 56.1666C36.1777 55.9642 36.2681 55.5139 36.5088 55.2887ZM43.8208 53.4278C43.7003 53.1199 43.9867 52.7596 44.3108 52.812C44.4615 52.8496 44.5744 52.9471 44.68 53.0523C45.4714 53.8481 46.2707 54.6284 47.0548 55.4239C47.3107 55.6866 47.6425 55.9118 47.7481 56.2869C47.6501 56.4521 47.5445 56.6772 47.3187 56.6997C46.9488 56.7372 46.6776 56.4445 46.3459 56.3242C45.8936 56.099 45.3436 56.099 44.8913 56.3321C44.6502 56.0918 44.4165 55.8515 44.1751 55.619C44.341 55.2663 44.4165 54.8611 44.2956 54.4857C44.2052 54.1029 43.9489 53.7878 43.8208 53.4278ZM48.6676 55.3863C48.8259 55.1463 49.2103 55.1087 49.3987 55.3339C50.2129 56.1521 51.0424 56.9624 51.8486 57.7879C50.9215 58.6885 50.0321 59.634 49.0822 60.5122C48.864 60.2795 48.6299 60.0543 48.4037 59.8216C49.2103 58.8312 49.3236 57.3976 48.7809 56.2569C48.6825 55.9866 48.4716 55.6563 48.6676 55.3863Z" fill="white"/>
<path d="M0.168789 58.3734C0.47011 58.2534 0.756841 58.0655 1.08861 58.0731C1.48794 58.1483 1.73693 58.501 2.01541 58.7634C5.80731 62.5235 9.58366 66.2909 13.3676 70.0507C13.5786 70.2837 13.8501 70.5162 13.8878 70.8465C13.8726 71.1689 13.6991 71.4544 13.564 71.7395C9.09362 71.7319 4.63152 71.7319 0.168789 71.7319C0.168789 67.2815 0.161176 62.8235 0.168789 58.3734Z" fill="#F96302"/>
<path d="M35.2578 58.1706C36.5995 58.0582 37.9339 58.5382 39.0418 59.2664C39.9087 59.8443 40.7153 60.5122 41.3331 61.3452C42.0722 62.3283 42.5241 63.5292 42.5321 64.7675C42.5543 66.1784 41.9967 67.6042 40.9868 68.6021C40.7527 68.3769 40.5265 68.1521 40.3007 67.9194C40.4361 67.6645 40.5944 67.3942 40.5494 67.0939C40.4742 66.6436 40.1649 66.2757 39.8557 65.9681C38.16 64.2796 36.4638 62.591 34.7678 60.9022C34.4211 60.5646 34.0291 60.1967 33.5165 60.1594C33.2377 60.1294 32.9887 60.2719 32.7553 60.407C32.5364 60.1667 32.2351 59.9867 32.0994 59.6867C32.9285 58.8385 34.0592 58.2454 35.2578 58.1706ZM65.724 67.4927C65.724 66.1462 66.8211 65.153 68.1177 65.153C69.402 65.153 70.4988 66.1462 70.4988 67.4927C70.4988 68.8519 69.402 69.845 68.1177 69.845C66.8211 69.845 65.724 68.8519 65.724 67.4927ZM68.1177 69.4538C69.1835 69.4538 70.0249 68.6223 70.0249 67.4927C70.0249 66.3818 69.1835 65.544 68.1177 65.544C67.039 65.544 66.1975 66.3818 66.1975 67.4927C66.1975 68.6223 67.039 69.4538 68.1177 69.4538ZM67.6188 68.8519H67.2074V66.1462H68.2421C68.8844 66.1462 69.2022 66.3818 69.2022 66.9155C69.2022 67.3999 68.8967 67.6108 68.4977 67.6604L69.271 68.8519H68.8092L68.0927 67.6787H67.6188V68.8519ZM68.1114 67.3314C68.4603 67.3314 68.7721 67.3067 68.7721 66.8908C68.7721 66.5558 68.4666 66.4939 68.1799 66.4939H67.6188V67.3314H68.1114Z" fill="white"/>
</g>
<defs>
<clipPath id="clip0_508_201">
<rect width="72" height="72" fill="white"/>
</clipPath>
</defs>
</svg>
