<svg xmlns="http://www.w3.org/2000/svg" width="127" height="37" viewBox="0 0 127 37" fill="none">
<path d="M93.1071 27.5426C88.8433 27.5426 86.1938 25.0242 86.1938 20.965C86.1938 16.7522 88.6387 14.1312 92.5754 14.1312H92.9057C93.3995 14.1312 94.0794 14.1476 95.0082 14.2659V9.18079H97.7889V27.0842C97.7889 27.0842 95.1467 27.5426 93.1071 27.5426ZM93.0821 16.3637C90.3883 16.3637 89.0785 17.8463 89.0785 20.8944C89.0785 23.6312 90.659 25.3323 93.1981 25.3323C93.6863 25.3323 94.2453 25.2994 95.0074 25.2329V16.546C94.2461 16.4212 93.6323 16.3637 93.0821 16.3637ZM55.0166 27.1319L47.5049 13.7657L47.5024 27.1319H44.8844V10.2108H48.5497L56.0614 23.4579L56.0582 10.2108H58.7109V27.1319H55.0166ZM78.9439 27.3923C77.6792 27.3923 76.3605 27.2477 74.7905 26.9397L74.6205 26.9068V24.5429L74.8686 24.5971C76.2533 24.8986 77.4488 25.1557 78.645 25.1557C79.6109 25.1557 81.8608 25.0012 81.8608 23.5515C81.8608 22.3359 80.3061 22.0303 79.0575 21.7864L78.9785 21.77C78.7449 21.7256 78.525 21.6804 78.3397 21.6328C76.5079 21.1482 74.5536 20.4196 74.5536 17.9169C74.5536 15.4758 76.4483 14.077 79.7527 14.077C81.3388 14.077 82.4899 14.2495 83.4155 14.3908L83.865 14.4581V16.7522L83.6257 16.7078C82.5785 16.5115 81.3509 16.3095 80.1707 16.3095C78.8585 16.3095 77.3014 16.56 77.3014 17.7502C77.3014 18.7383 78.5757 19.0208 80.0515 19.3486C82.1153 19.8036 84.6738 20.3753 84.6738 23.2468C84.6738 25.8809 82.5874 27.3923 78.9439 27.3923ZM105.596 27.3923C102.717 27.3923 100.052 26.8748 100.052 23.1277C100.052 19.0496 104.174 19.0496 106.638 19.0496C106.883 19.0496 108.041 19.1046 108.396 19.1202C108.393 16.8327 108.365 16.2873 105.111 16.2873C103.822 16.2873 102.389 16.5469 101.125 16.7785L100.883 16.8228V14.5641L101.046 14.5287C102.512 14.2248 103.926 14.077 105.367 14.077C108.52 14.077 111.191 14.4006 111.191 18.3892V27.0875L110.999 27.1097C108.815 27.3594 107.082 27.3923 105.596 27.3923M106.569 21.0677C104.192 21.0677 102.72 21.4242 102.72 23.1983C102.72 25.2518 104.598 25.4218 106.361 25.4218C107.018 25.4218 108.201 25.3355 108.563 25.3093V21.1383C108.054 21.1162 106.729 21.0677 106.569 21.0677ZM66.5771 27.3923C63.6948 27.3923 61.03 26.8748 61.03 23.1277C61.03 19.0496 65.152 19.0496 67.6154 19.0496C67.8611 19.0496 69.0219 19.1046 69.378 19.1202C69.3747 16.8327 69.3433 16.2873 66.0897 16.2873C64.7992 16.2873 63.367 16.5469 62.1022 16.7785L61.8606 16.8228V14.5641L62.0273 14.5287C63.4478 14.2293 64.8945 14.0779 66.3451 14.077C69.4972 14.077 72.1692 14.4006 72.1692 18.3892V27.0875L71.9767 27.1097C69.7936 27.3594 68.0593 27.3923 66.5771 27.3923ZM67.5461 21.0677C65.1706 21.0677 63.7013 21.4242 63.7013 23.1983C63.7013 25.2518 65.5766 25.4218 67.3391 25.4218C67.9997 25.4218 69.183 25.3355 69.5447 25.3093V21.1383C69.0316 21.1162 67.7073 21.0677 67.5469 21.0677" fill="#231F20"/>
<mask id="mask0_508_218" style="mask-type:luminance" maskUnits="userSpaceOnUse" x="113" y="13" width="13" height="20">
<path d="M113.231 13.2612H125.686V32.6431H113.231V13.2612Z" fill="white"/>
</mask>
<g mask="url(#mask0_508_218)">
<path d="M122.756 32.5042V27.0466C121.64 27.1984 121.047 27.1984 120.568 27.1984C119.434 27.1984 118.175 26.9586 117.2 26.558C115.018 25.6737 113.717 23.4287 113.717 20.548C113.717 19.1106 114.077 16.4819 116.482 15.0654C117.689 14.3628 119.114 14.0624 121.257 14.0624C122.024 14.0624 123.06 14.1189 124.061 14.1754L125.686 14.2578V31.2396L122.756 32.5042ZM121.044 16.2582C118.136 16.2574 116.662 17.7029 116.662 20.548C116.662 24.2112 118.861 24.9808 120.709 24.9808C121.159 24.9808 121.664 24.9808 122.784 24.8419V16.3373C121.907 16.2808 121.502 16.2582 121.043 16.2582H121.044Z" fill="#231F20"/>
</g>
<mask id="mask1_508_218" style="mask-type:luminance" maskUnits="userSpaceOnUse" x="21" y="0" width="22" height="27">
<path d="M21.4221 0.0128174H42.8442V26.5225H21.4221V0.0128174Z" fill="white"/>
</mask>
<g mask="url(#mask1_508_218)">
<path d="M32.5394 0.0128174L23.4803 25.2253C23.2517 25.8588 22.6859 26.3042 22.0236 26.3722V26.3843H31.6C32.3498 26.3843 32.9917 25.9013 33.2305 25.2261L42.2928 0.0128174H32.5394Z" fill="#0996C7"/>
</g>
<path d="M20.727 26.5225C21.2706 26.5225 21.7467 26.2336 22.0379 25.796C22.0682 25.7504 22.1746 25.591 22.25 25.3743L25.5025 15.8167L23.5997 10.235C23.374 9.65942 22.8742 9.25987 22.2939 9.19124C21.7136 9.1226 21.1442 9.39566 20.8062 9.90458C20.7751 9.95024 20.6486 10.1536 20.5942 10.3263L17.3417 19.8806L19.253 25.4847C19.5064 26.1143 20.0859 26.5223 20.727 26.5225Z" fill="#0996C7"/>
<mask id="mask2_508_218" style="mask-type:luminance" maskUnits="userSpaceOnUse" x="0" y="8" width="22" height="28">
<path d="M0 8.16077H21.4221V35.539H0V8.16077Z" fill="white"/>
</mask>
<g mask="url(#mask2_508_218)">
<path d="M21.1587 8.95789H11.4767C10.727 8.95789 10.0851 9.44231 9.8431 10.126L0.783936 35.5382H10.5373L19.5973 10.1268C19.8377 9.45063 20.4547 8.98999 21.1587 8.96113V8.95789Z" fill="#0996C7"/>
</g>
</svg>
