<svg xmlns="http://www.w3.org/2000/svg" width="28" height="20" viewBox="0 0 28 20" fill="none">
<path d="M25.6377 0L26.4715 1.9863C23.9702 2.76256 22.0711 3.83562 20.7742 5.20548C19.5236 6.52968 18.8983 7.9452 18.8983 9.45205C18.8983 10.5023 19.3151 11.0274 20.1489 11.0274C20.6121 11.0274 21.0984 10.9361 21.6079 10.7534C22.1638 10.5708 22.7891 10.4794 23.4839 10.4794C24.8734 10.4794 25.962 10.9132 26.7494 11.7808C27.5831 12.6027 28 13.6758 28 15C28 16.4612 27.4673 17.6712 26.402 18.6301C25.3366 19.5434 23.9934 20 22.3722 20C20.3805 20 18.8056 19.2694 17.6476 17.8082C16.4897 16.347 15.9107 14.3836 15.9107 11.9178C15.9107 8.94977 16.7444 6.46119 18.4119 4.45205C20.0794 2.44292 22.488 0.958903 25.6377 0ZM9.72705 0L10.5608 1.9863C8.05955 2.76256 6.16046 3.83562 4.86352 5.20548C3.6129 6.52968 2.98759 7.9452 2.98759 9.45205C2.98759 10.5023 3.40447 11.0274 4.23821 11.0274C4.70141 11.0274 5.18776 10.9361 5.69727 10.7534C6.2531 10.5708 6.87841 10.4794 7.5732 10.4794C8.96278 10.4794 10.0513 10.9132 10.8387 11.7808C11.6725 12.6027 12.0893 13.6758 12.0893 15C12.0893 16.4612 11.5567 17.6712 10.4913 18.6301C9.42597 19.5434 8.08271 20 6.46154 20C4.46981 20 2.89495 19.2694 1.73697 17.8082C0.578991 16.347 0 14.3836 0 11.9178C0 8.94977 0.833746 6.46119 2.50124 4.45205C4.16873 2.44292 6.57734 0.958903 9.72705 0Z" fill="#CACBD6"/>
</svg>
