<svg xmlns="http://www.w3.org/2000/svg" width="127" height="37" viewBox="0 0 127 37" fill="none">
<g clip-path="url(#clip0_508_245)">
<path fill-rule="evenodd" clip-rule="evenodd" d="M51.6932 26.3121L44.7284 18.2344V26.3121H39.8658V0.123779H44.7284V13.4983L50.3938 6.64806H57.0133L48.9132 15.8654L58.3094 26.3121H51.6932ZM79.2008 19.7983C79.1995 24.1892 82.6999 26.812 86.2214 26.812C87.5335 26.812 89.3548 26.4058 90.8405 25.5742L87.7281 21.6591C87.3041 21.931 86.7688 22.1427 86.1491 22.1427C85.3777 22.1427 83.923 21.5856 83.923 19.7301V11.3152H87.9614V6.64781H83.923L83.9227 1.74764H79.2004L79.2008 6.64781H76.7026V11.3152H79.2008V19.7983ZM13.3543 17.1194L20.6619 26.3119H14.4795L8.43199 18.6937H4.93881V26.3119H0V1.74779H8.16166C13.1065 1.74779 17.1273 5.54344 17.1273 10.2167C17.1273 13.0623 15.6316 15.5745 13.3543 17.1194ZM114.28 7.37908C114.28 7.37908 115.97 6.16502 118.293 6.16502C123.309 6.16502 126.74 10.0208 126.74 14.7606V26.3119H122.017V14.7606C122.017 12.5938 120.441 10.7638 118.149 10.7638C115.854 10.7638 114.28 12.5938 114.28 14.7606V26.3119H109.557V6.648H114.28V7.37908ZM28.0021 26.795C22.6302 26.795 18.5493 22.1681 18.5493 16.4808C18.5493 10.7948 22.6302 6.16514 28.0021 6.16514C29.7506 6.16514 31.0275 6.66374 32.4512 7.52071V6.64807H37.1731V26.3121H32.4512V25.4401C31.0275 26.2986 29.7506 26.795 28.0021 26.795ZM25.3479 29.9966H102.027L31.456 35.7692L25.3479 29.9966ZM32.5233 16.4806C32.5233 19.5946 30.6541 22.0598 28.0019 22.0598C25.3532 22.0598 23.4137 19.5946 23.4137 16.4806C23.4137 13.3689 25.3532 10.9034 28.0019 10.9034C30.6541 10.9034 32.5233 13.3689 32.5233 16.4806ZM66.2649 26.7951C68.5877 26.7951 70.2786 25.5809 70.2786 25.5809V26.3121H75.0008V6.64814H70.2786V18.1996C70.2786 20.3664 68.7036 22.1963 66.4093 22.1963C64.1171 22.1963 62.5408 20.3664 62.5408 18.1996V6.64814H57.8185V18.1996C57.8185 22.9394 61.2492 26.7951 66.2649 26.7951ZM8.16172 6.41183C10.3795 6.41183 12.1932 8.11688 12.1932 10.2168C12.1932 12.3225 10.3795 14.0264 8.16172 14.0263H4.93886V6.41183H8.16172ZM107.677 17.8566L94.0748 17.8538C94.6954 22.3474 100.071 24.6283 103.297 20.1344L107.468 22.4107C104.787 26.0055 101.596 26.8126 99.105 26.8126C94.1709 26.8126 89.2498 22.57 89.2498 16.48C89.2498 10.6882 93.1703 6.14906 98.6358 6.14906C104.009 6.14907 108.841 10.7939 107.677 17.8566ZM102.758 13.9419C101.838 9.07207 95.2468 9.3363 94.253 13.9419H102.758Z" fill="#8529CD"/>
</g>
<defs>
<clipPath id="clip0_508_245">
<rect width="126.74" height="36.9657" fill="white"/>
</clipPath>
</defs>
</svg>
