<svg xmlns="http://www.w3.org/2000/svg" width="127" height="31" viewBox="0 0 127 31" fill="none">
<g clip-path="url(#clip0_508_247)">
<mask id="mask0_508_247" style="mask-type:luminance" maskUnits="userSpaceOnUse" x="0" y="0" width="127" height="31">
<path d="M126.74 0H0V30.2641H126.74V0Z" fill="white"/>
</mask>
<g mask="url(#mask0_508_247)">
<path d="M57.388 7.55889H60.386V2.2094H62.5173V0.0426025H55.2567V2.2094H57.388V7.55889Z" fill="black"/>
<path d="M64.7267 7.55889L66.2541 3.06191L67.7815 7.55889H70.7155L67.8383 0.0426025H64.6698L61.7926 7.55889H64.7267Z" fill="black"/>
<path d="M72.1222 7.55889H75.1273V2.2094H77.2515V0.0426025H69.998V2.2094H72.1222V7.55889Z" fill="black"/>
<path d="M79.468 7.55889L80.9954 3.06191L82.5228 7.55889H85.4569L82.5796 0.0426025H79.404L76.5339 7.55889H79.468Z" fill="black"/>
<path d="M108.254 12.9297C108.652 13.8177 109.1 14.6844 109.604 15.5227L111.565 18.8262H112.986V11.317H111.714V13.9385C111.714 15.0894 111.743 16.0555 111.835 17.0501L111.807 17.0572C111.437 16.1905 111.011 15.3451 110.528 14.5423L108.588 11.317H107.018V18.8333H108.29V16.1408C108.29 14.9047 108.269 13.9172 108.219 12.9368L108.254 12.9297Z" fill="black"/>
<path d="M101.441 16.7091H103.828L104.51 18.8333H105.981L103.537 11.317H101.79L99.3812 18.8333H100.802L101.441 16.7091ZM102.244 13.8106C102.379 13.363 102.493 12.8444 102.599 12.3969H102.621C102.734 12.8302 102.855 13.3417 103.004 13.8106L103.594 15.6648H101.662L102.244 13.8106Z" fill="black"/>
<path d="M79.0701 17.8103C78.4378 17.8032 77.8126 17.6398 77.2514 17.3343L76.9459 18.471C77.358 18.7197 78.1821 18.947 78.9777 18.947C80.9172 18.947 81.8265 17.8956 81.8265 16.6878C81.8265 15.608 81.2014 14.9544 79.8942 14.4571C78.8925 14.0735 78.4591 13.8035 78.4591 13.2281C78.4591 12.7876 78.8285 12.3258 79.7024 12.3258C80.221 12.3187 80.7396 12.4466 81.2014 12.6811L81.5282 11.5728C81.1374 11.3739 80.5407 11.2034 79.7237 11.2034C78.0968 11.2034 77.0667 12.134 77.0667 13.3631C77.0667 14.4429 77.8624 15.1036 79.1056 15.5441C80.0576 15.8922 80.4341 16.2261 80.4341 16.7873C80.4341 17.3983 79.9439 17.8103 79.0701 17.8103Z" fill="black"/>
<path d="M59.3416 12.333C59.846 12.3259 60.3433 12.4253 60.8051 12.6242L61.1035 11.5302C60.8264 11.381 60.187 11.1963 59.2848 11.1963C56.9901 11.1963 55.2638 12.6882 55.2638 15.1605C55.2638 17.448 56.7131 18.947 59.1001 18.947C60.0094 18.947 60.727 18.7694 61.0466 18.606L60.8193 17.5262C60.457 17.6896 59.8816 17.7961 59.3203 17.7961C57.6721 17.7961 56.706 16.7447 56.706 15.0894C56.706 13.2849 57.8071 12.333 59.3416 12.333Z" fill="black"/>
<path d="M97.7117 18.8333V12.4679H99.8785V11.317H94.188V12.4679H96.3335V18.8333H97.7117Z" fill="black"/>
<path d="M125.148 11.317L124.246 13.2423C123.99 13.7893 123.784 14.2511 123.592 14.7342H123.571C123.365 14.2226 123.173 13.7964 122.918 13.2423L122.022 11.317H120.452L122.832 15.7074V18.8333H124.203V15.6648L126.697 11.317H125.148Z" fill="black"/>
<path d="M65.0819 11.1963C62.9577 11.1963 61.5013 12.8232 61.5013 15.132C61.5013 17.3344 62.844 18.9541 64.9682 18.9541H64.9824C67.0427 18.9541 68.5701 17.512 68.5701 14.9971C68.563 12.8516 67.27 11.1963 65.0819 11.1963ZM65.025 17.853H65.0108C63.6966 17.853 62.9293 16.5884 62.9364 15.0965C62.9435 13.6046 63.6539 12.2903 65.025 12.2903C66.3962 12.2903 67.0995 13.633 67.0995 15.0468C67.1066 16.6239 66.3535 17.853 65.025 17.853Z" fill="black"/>
<path d="M118.25 12.333C118.754 12.3259 119.252 12.4253 119.713 12.6242L120.012 11.5302C119.735 11.381 119.095 11.1963 118.193 11.1963C115.898 11.1963 114.172 12.6882 114.172 15.1605C114.172 17.448 115.621 18.947 118.008 18.947C118.918 18.947 119.635 18.7694 119.955 18.606L119.728 17.5262C119.365 17.6896 118.79 17.7961 118.229 17.7961C116.58 17.7961 115.614 16.7447 115.614 15.0894C115.614 13.2849 116.715 12.333 118.25 12.333Z" fill="black"/>
<path d="M91.8649 11.317H90.4867V18.8333H94.9553V17.6753H91.8649V11.317Z" fill="black"/>
<path d="M88.9238 15.608V11.317H87.5527V15.7003C87.5527 17.1709 86.9559 17.8529 85.9684 17.8529C85.0377 17.8529 84.4268 17.1709 84.4268 15.7003V11.317H83.0557V15.6151C83.0557 17.9808 84.1852 18.9541 85.9187 18.9541C87.7374 18.9541 88.9238 17.924 88.9238 15.608Z" fill="black"/>
<path d="M75.7027 11.317H74.431V13.9385C74.431 15.0894 74.4594 16.0555 74.5518 17.0501L74.5234 17.0572C74.1539 16.1905 73.7277 15.3451 73.2446 14.5423L71.3051 11.317H69.7351V18.8333H71.0068V16.1408C71.0068 14.9047 70.9855 13.9172 70.9357 12.9368L70.9712 12.9297C71.3691 13.8177 71.8167 14.6844 72.3211 15.5227L74.2818 18.8262H75.7027V11.317Z" fill="black"/>
<path d="M81.5779 22.5844H80.2068V30.1006H81.5779V22.5844Z" fill="black"/>
<path d="M70.7653 26.577V26.5486C71.4686 26.2999 72.1222 25.6463 72.1222 24.6873C72.1222 24.0479 71.8878 23.5293 71.4829 23.1883C70.9785 22.7691 70.1117 22.5844 69.1811 22.5844C68.492 22.5773 67.7958 22.627 67.1208 22.7478V30.1007H68.4707V27.0388H69.1598C69.9341 27.0601 70.2893 27.3727 70.5025 28.3459C70.7085 29.2695 70.8861 29.8876 70.9998 30.1078H72.3993C72.2501 29.8165 72.0441 28.964 71.8096 28.0263C71.6178 27.2945 71.3052 26.783 70.7653 26.577ZM69.2734 26.0371H68.4707V23.6785C68.7477 23.6216 69.0319 23.6003 69.3161 23.6074C70.197 23.6074 70.7653 23.991 70.7653 24.8009C70.7653 25.5469 70.197 26.0371 69.2734 26.0371Z" fill="black"/>
<path d="M76.8395 26.0228C76.5482 26.9321 76.2711 27.8557 76.0722 28.7366H76.0509C75.8591 27.8273 75.5962 26.9464 75.312 26.0015L74.289 22.5844H72.79L75.2197 30.1006H76.7968L79.397 22.5844H77.9335L76.8395 26.0228Z" fill="black"/>
<path d="M91.0763 26.7687H93.9109V25.6463H91.0763V23.7139H94.0743V22.5844H89.7052V30.1006H94.2448V28.9711H91.0763V26.7687Z" fill="black"/>
<path d="M86.8422 23.6003C87.3466 23.5932 87.8439 23.6927 88.3057 23.8916L88.6041 22.7975C88.327 22.6483 87.6876 22.4636 86.7854 22.4636C84.4907 22.4636 82.7644 23.9555 82.7644 26.4278C82.7644 28.7153 84.2137 30.2143 86.6007 30.2143C87.51 30.2143 88.2276 30.0367 88.5473 29.8733L88.3199 28.7935C87.9576 28.9569 87.3822 29.0635 86.8209 29.0635C85.1727 29.0635 84.2066 28.012 84.2066 26.3567C84.1995 24.5594 85.3006 23.6003 86.8422 23.6003Z" fill="black"/>
<path d="M58.2049 25.7244C57.2032 25.3408 56.7699 25.0709 56.7699 24.4954C56.7699 24.0549 57.1393 23.5932 58.0131 23.5932C58.5317 23.5861 59.0504 23.7139 59.5121 23.9484L59.8389 22.8401C59.4482 22.6412 58.8514 22.4707 58.0344 22.4707C56.4076 22.4707 55.3775 23.4014 55.3775 24.6304C55.3775 25.7102 56.1731 26.3709 57.4164 26.8114C58.3683 27.1595 58.7449 27.4934 58.7449 28.0546C58.7449 28.6727 58.2547 29.0776 57.3809 29.0776C56.7486 29.0705 56.1234 28.9071 55.5693 28.6017L55.2638 29.7383C55.6758 29.987 56.4999 30.2143 57.2956 30.2143C59.2351 30.2143 60.1444 29.1629 60.1444 27.9552C60.1373 26.8824 59.5121 26.2217 58.2049 25.7244Z" fill="black"/>
<path d="M62.7445 26.7687H65.5791V25.6463H62.7445V23.7139H65.7496V22.5844H61.3734V30.1006H65.913V28.9711H62.7445V26.7687Z" fill="black"/>
<path d="M98.0668 25.7244C97.0651 25.3408 96.6317 25.0709 96.6317 24.4954C96.6317 24.0549 97.0011 23.5932 97.875 23.5932C98.3936 23.5861 98.9122 23.7139 99.374 23.9484L99.7008 22.8401C99.31 22.6412 98.7133 22.4707 97.8963 22.4707C96.2694 22.4707 95.2393 23.4014 95.2393 24.6304C95.2393 25.7102 96.035 26.3709 97.2782 26.8114C98.2302 27.1595 98.6067 27.4934 98.6067 28.0546C98.6067 28.6727 98.1165 29.0776 97.2427 29.0776C96.6033 29.0705 95.9852 28.9071 95.424 28.6017L95.1185 29.7383C95.5306 29.987 96.3547 30.2143 97.1503 30.2143C99.0898 30.2143 99.9991 29.1629 99.9991 27.9552C99.9991 26.8824 99.3669 26.2217 98.0668 25.7244Z" fill="black"/>
<path d="M44.4724 17.4816L40.899 14.9952C40.8564 14.9667 40.8137 14.9312 40.7711 14.9028C39.4639 13.9366 38.8956 13.0415 38.8956 11.9901C38.8956 10.5976 40.0323 9.72382 41.6449 9.72382C43.691 9.72382 44.6571 10.6829 45.872 10.6829C46.831 10.6829 47.4846 10.0293 47.4846 9.07023C47.4846 8.37401 47.1365 7.80568 46.2201 7.37232C44.7779 6.6761 43.2079 6.41325 41.51 6.41325C39.7268 6.41325 38.1568 6.93896 37.0201 7.80568C36.7927 7.98328 36.5654 8.1751 36.3594 8.37401C36.3523 8.38112 36.3381 8.39533 36.331 8.40243C35.038 9.79486 33.951 11.8409 33.0914 14.6968L32.0897 18.0074C30.2995 23.847 27.472 26.639 23.0602 26.639C18.2222 26.639 15.1674 23.2787 15.1674 18.3128C15.1674 13.4322 18.1157 10.0577 22.3924 9.94405C22.4706 9.94405 22.5487 9.94405 22.6269 9.94405C24.0761 9.93695 25.5041 10.2495 26.8113 10.8605C27.3796 11.1234 27.8556 11.2086 28.2961 11.2086C29.3404 11.2086 30.0366 10.5053 30.0366 9.46096C30.0366 8.80737 29.6459 8.15378 28.7294 7.72043C27.0741 6.88923 24.9358 6.41325 22.6269 6.41325C15.7358 6.41325 10.983 11.2939 10.983 18.4052C10.983 20.2807 11.3169 21.9999 11.9421 23.5131C11.0328 25.481 9.65453 26.5182 7.85005 26.5182C5.66904 26.5182 4.23399 25.2537 4.23399 22.3765V10.0719H9.33484C10.5141 10.0719 11.2956 9.37571 11.2956 8.37401C11.2956 7.37232 10.5141 6.6761 9.33484 6.6761H4.23399V2.22885C4.23399 0.921672 3.36016 0.0478516 2.13823 0.0478516C0.916304 0.0478516 0.0424805 0.921672 0.0424805 2.22885V10.8605V22.8524C0.0424805 27.6478 2.79183 30.1769 7.45221 30.1769C8.42549 30.1769 9.39167 30.0206 10.3152 29.7009C10.3223 29.7009 10.3223 29.7009 10.3294 29.7009C11.8568 29.1255 13.0859 28.1238 13.9526 26.6745C16.027 28.9124 19.1032 30.2195 22.9324 30.2195C24.9358 30.2195 26.6763 29.8288 28.2463 29.0047H28.2534C31.4361 27.3494 33.7024 23.9891 35.2724 18.8457L36.1889 15.8406C36.7998 16.6576 37.6595 17.4319 38.8032 18.2347L42.0712 20.5009C42.5543 20.8348 42.9948 21.1758 43.4068 21.5097C43.9964 22.1562 44.167 22.8596 44.167 23.6836C44.167 25.5592 42.6822 26.8237 40.5509 26.8237C38.5049 26.8237 36.7572 25.7794 35.7981 25.7794C34.8391 25.7794 34.1855 26.433 34.1855 27.3921C34.1855 28.0883 34.5336 28.6566 35.45 29.09C36.7146 29.7009 38.7606 30.2266 40.5935 30.2266C42.9024 30.2266 44.8205 29.5304 46.1775 28.3085C46.2414 28.2517 46.3053 28.1948 46.3622 28.1309C47.4704 27.0084 48.1382 25.4668 48.1382 23.6907C48.1382 21.0622 47.0939 19.3145 44.4724 17.4816Z" fill="black"/>
</g>
</g>
<defs>
<clipPath id="clip0_508_247">
<rect width="126.74" height="30.2641" fill="white"/>
</clipPath>
</defs>
</svg>
